<?xml version="1.0" encoding="utf-8"?>
<!-- Generator: Adobe Illustrator 24.0.1, SVG Export Plug-In . SVG Version: 6.00 Build 0)  -->
<svg version="1.1" id="Layer_1" xmlns="http://www.w3.org/2000/svg" xmlns:xlink="http://www.w3.org/1999/xlink" x="0px" y="0px"
	 viewBox="0 0 38 24" style="enable-background:new 0 0 38 24;" xml:space="preserve">
<style type="text/css">
	.st0{fill:#FFFFFF;}
</style>
<g>
	<path d="M35,0H3C1.3,0,0,1.3,0,3v18c0,1.7,1.4,3,3,3h32c1.7,0,3-1.3,3-3V3C38,1.3,36.6,0,35,0z"/>
	<path class="st0" d="M35,1c1.1,0,2,0.9,2,2v18c0,1.1-0.9,2-2,2H3.1c-1.1,0-2-0.9-2-2V3c0-1.1,0.9-2,2-2H35"/>
</g>
<g>
	<path d="M32.4,10.4l-0.8-0.5l-0.8-0.5c-0.6-0.3-1.3,0.1-1.3,0.7v0.1c0,0.1,0,0.1,0.1,0.1l0.4,0.2c0.1,0.1,0.2,0,0.2-0.1v-0.3
		c0-0.1,0.1-0.2,0.2-0.1l0.8,0.4L32,11c0.1,0.1,0.1,0.2,0,0.3l-0.8,0.4l-0.8,0.4c-0.1,0.1-0.2,0-0.2-0.1l0-0.1c0-0.6-0.7-1-1.3-0.7
		l-0.8,0.5l-0.8,0.5c-0.6,0.3-0.6,1.1,0,1.5l0.8,0.5l0.8,0.5c0.6,0.3,1.3-0.1,1.3-0.7v-0.1c0-0.1,0-0.1-0.1-0.1l-0.4-0.2
		c-0.1-0.1-0.2,0-0.2,0.1v0.3c0,0.1-0.1,0.2-0.2,0.1l-0.8-0.4L27.7,13c-0.1-0.1-0.1-0.2,0-0.3l0.8-0.4l0.8-0.4
		c0.1-0.1,0.2,0,0.2,0.1v0.1c0,0.6,0.7,1,1.3,0.7l0.8-0.5l0.8-0.5C32.9,11.5,32.9,10.7,32.4,10.4z"/>
	<g>
		<path d="M26.9,10.5l-1.9,4h-0.8l0.7-1.5l-1.1-2.5h0.8l0.7,1.7l0.8-1.7H26.9z"/>
	</g>
	<g>
		<g>
			<path d="M7.5,12c0-0.5-0.3-0.8-0.8-0.8c-0.4,0-0.8,0.3-0.8,0.8c0,0.5,0.3,0.8,0.8,0.8C7.1,12.8,7.5,12.5,7.5,12 M7.5,13.4V13
				c-0.2,0.3-0.5,0.4-0.9,0.4c-0.8,0-1.4-0.6-1.4-1.5c0-0.8,0.6-1.5,1.4-1.5c0.4,0,0.7,0.2,0.9,0.4v-0.4h0.7v2.9H7.5z"/>
			<path d="M11.6,12.8c-0.2,0-0.3-0.1-0.3-0.3v-1.3h0.5v-0.6h-0.5V9.8h-0.7v0.7H9.6v-0.3c0-0.2,0.1-0.3,0.3-0.3h0.2V9.4H9.8
				c-0.6,0-0.9,0.2-0.9,0.8v0.4H8.5v0.6h0.4v2.2h0.7v-2.2h0.9v1.4c0,0.6,0.2,0.8,0.8,0.8h0.4v-0.6H11.6z"/>
			<path d="M14.2,11.7c-0.1-0.4-0.4-0.6-0.7-0.6c-0.4,0-0.6,0.2-0.7,0.6H14.2z M12.7,12.2c0.1,0.4,0.4,0.7,0.7,0.7
				c0.3,0,0.5-0.1,0.7-0.4h0.7c-0.2,0.6-0.7,1-1.4,1c-0.9,0-1.5-0.6-1.5-1.5c0-0.9,0.6-1.5,1.5-1.5c0.9,0,1.5,0.6,1.5,1.5
				c0,0.1,0,0.1,0,0.2H12.7z"/>
			<path d="M19.5,12c0-0.5-0.3-0.8-0.8-0.8c-0.4,0-0.8,0.3-0.8,0.8c0,0.5,0.3,0.8,0.8,0.8C19.2,12.8,19.5,12.4,19.5,12 M17.3,14.6
				v-4H18v0.4c0.2-0.3,0.5-0.4,0.9-0.4c0.8,0,1.4,0.6,1.4,1.5c0,0.8-0.6,1.5-1.4,1.5c-0.4,0-0.7-0.1-0.9-0.4v1.5H17.3z"/>
			<path d="M22.8,12c0-0.5-0.3-0.8-0.8-0.8c-0.4,0-0.8,0.3-0.8,0.8c0,0.5,0.3,0.8,0.8,0.8C22.4,12.8,22.8,12.5,22.8,12 M22.8,13.4
				V13c-0.2,0.3-0.5,0.4-0.9,0.4c-0.8,0-1.4-0.6-1.4-1.5c0-0.8,0.6-1.5,1.4-1.5c0.4,0,0.7,0.2,0.9,0.4v-0.4h0.7v2.9H22.8z"/>
			<path d="M16,10.8c0,0,0.2-0.3,0.6-0.3c0.2,0,0.3,0.1,0.3,0.1v0.7c0,0-0.3-0.2-0.5-0.1c-0.2,0-0.4,0.3-0.4,0.6v1.7h-0.7v-2.9H16
				V10.8z"/>
		</g>
	</g>
</g>
</svg>
