<?xml version="1.0" encoding="utf-8"?>
<!-- Generator: Adobe Illustrator 24.0.1, SVG Export Plug-In . SVG Version: 6.00 Build 0)  -->
<svg version="1.1" id="Layer_1" xmlns="http://www.w3.org/2000/svg" xmlns:xlink="http://www.w3.org/1999/xlink" x="0px" y="0px"
	 viewBox="0 0 38 24" width="38" height="24" style="enable-background:new 0 0 38 24;" xml:space="preserve">
<style type="text/css">
	.st0{fill:#FFFFFF;}
</style>
<g>
	<path d="M35-0.01H3.01c-1.7,0-3,1.3-3,3v17.98c0,1.7,1.4,3,3,3H35c1.7,0,3-1.3,3-3V2.99C38,1.29,36.6-0.01,35-0.01z"/>
	<path class="st0" d="M35.01,0.99c1.1,0,2,0.9,2,2v17.98c0,1.1-0.9,2-2,2H3.06c-1.1,0-2-0.9-2-2V2.99c0-1.1,0.9-2,2-2H35.01"/>
</g>
<g>
	<path d="M10.08,7.68c0.32-0.41,0.54-0.95,0.48-1.49c-0.48,0.02-1.04,0.32-1.38,0.7c-0.3,0.34-0.57,0.9-0.5,1.43
		C9.21,8.39,9.74,8.09,10.08,7.68 M10.55,8.45C9.78,8.41,9.13,8.88,8.76,8.88c-0.36,0-0.93-0.41-1.54-0.41
		C6.43,8.5,5.71,8.93,5.3,9.65c-0.81,1.43-0.23,3.53,0.59,4.68c0.38,0.57,0.86,1.2,1.47,1.18c0.59-0.02,0.81-0.38,1.52-0.38
		c0.7,0,0.9,0.38,1.54,0.36c0.63-0.02,1.04-0.57,1.43-1.15c0.45-0.66,0.63-1.29,0.63-1.31c-0.02-0.02-1.24-0.48-1.24-1.88
		c-0.02-1.18,0.95-1.74,1-1.76C11.7,8.57,10.84,8.48,10.55,8.45"/>
	<g>
		<path d="M18.08,6.84c1.68,0,2.83,1.15,2.83,2.81c0,1.68-1.18,2.83-2.87,2.83h-1.83v2.92h-1.34V6.84H18.08z M16.21,11.37h1.52
			c1.15,0,1.81-0.63,1.81-1.7c0-1.09-0.66-1.7-1.81-1.7h-1.54v3.4L16.21,11.37L16.21,11.37z M21.25,13.65
			c0-1.09,0.84-1.77,2.33-1.86l1.72-0.09v-0.48c0-0.7-0.48-1.11-1.25-1.11c-0.75,0-1.2,0.36-1.31,0.9h-1.22
			c0.07-1.13,1.04-1.97,2.58-1.97c1.52,0,2.49,0.79,2.49,2.06v4.3h-1.22V14.4h-0.02c-0.36,0.7-1.15,1.13-1.97,1.13
			C22.11,15.53,21.25,14.76,21.25,13.65z M25.31,13.09v-0.5l-1.54,0.09c-0.77,0.05-1.2,0.38-1.2,0.93s0.45,0.9,1.13,0.9
			C24.6,14.51,25.31,13.9,25.31,13.09L25.31,13.09z M27.73,17.73v-1.04c0.09,0.02,0.32,0.02,0.41,0.02c0.59,0,0.9-0.25,1.11-0.88
			c0-0.02,0.11-0.38,0.11-0.38L27.1,9.19h1.38l1.58,5.09h0.02l1.58-5.09h1.36l-2.33,6.59c-0.54,1.52-1.15,1.99-2.45,1.99
			C28.16,17.75,27.84,17.75,27.73,17.73L27.73,17.73z"/>
	</g>
</g>
</svg>
