<svg xmlns="http://www.w3.org/2000/svg" width="38" height="24" viewBox="0 0 38 24">
    <g fill="none" fill-rule="nonzero">
        <path fill="#000" d="M35 0H3C1.3 0 0 1.3 0 3v18c0 1.7 1.4 3 3 3h32c1.7 0 3-1.3 3-3V3c0-1.7-1.4-3-3-3z" opacity=".07"/>
        <path fill="#FFF" d="M35 1c1.1 0 2 .9 2 2v18c0 1.1-.9 2-2 2H3c-1.1 0-2-.9-2-2V3c0-1.1.9-2 2-2h32"/>
        <path fill="#EDA024" d="M37 17v4.017c0 1.09-.915 1.983-2.033 1.983H23c8.027-1.8 12.242-4.563 14-6z"/>
        <path fill="#494949" d="M9 11h20v2H9z"/>
        <path fill="#EDA024" d="M22 12c0 1.7-1.3 3-3 3s-3-1.4-3-3 1.4-3 3-3c1.7 0 3 1.3 3 3z"/>
    </g>
</svg>
