<svg xmlns="http://www.w3.org/2000/svg" width="38" height="24" viewBox="0 0 38 24">
    <g fill="none" fill-rule="nonzero">
        <path fill="#000" d="M35 0H3C1.3 0 0 1.3 0 3v18c0 1.7 1.4 3 3 3h32c1.7 0 3-1.3 3-3V3c0-1.7-1.4-3-3-3z" opacity=".07"/>
        <path fill="#FFF" d="M35 1c1.1 0 2 .9 2 2v18c0 1.1-.9 2-2 2H3c-1.1 0-2-.9-2-2V3c0-1.1.9-2 2-2h32"/>
        <path fill="#003087" d="M23.925 8.3c.2-1 0-1.7-.602-2.3-.601-.7-1.704-1-3.107-1h-4.11c-.301 0-.502.2-.602.5L14 15.6c0 .2.1.4.3.4h2.708l.4-3.4 1.805-2.2 4.712-2.1z"/>
        <path fill="#3086C8" d="M24.039 8l-.193.204c-.482 2.857-2.121 3.878-4.435 3.878H18.35c-.29 0-.482.204-.579.51l-.578 3.98-.193 1.02c0 .204.096.408.29.408h2.024c.29 0 .482-.204.482-.408v-.102l.386-2.45v-.101c0-.204.29-.408.482-.408h.29c2.024 0 3.567-.817 3.953-3.266.193-1.02.096-1.836-.386-2.449-.096-.51-.29-.714-.482-.816z"/>
        <path fill="#012169" d="M23.354 8.3c-.108-.1-.216-.1-.323-.1-.108 0-.216 0-.323-.1-.323-.1-.754-.1-1.185-.1h-3.23c-.108 0-.216 0-.216.1-.215.1-.323.2-.323.4L17 12.9v.1c0-.3.323-.5.646-.5h1.4c2.692 0 4.416-1 4.954-3.8v-.2a.857.857 0 0 0-.538-.2h-.108z"/>
    </g>
</svg>
